<svg width="348" height="36" viewBox="0 0 348 36" fill="none" xmlns="http://www.w3.org/2000/svg">
<path d="M5.48 27C3.85333 27 2.58667 26.5467 1.68 25.64C0.773333 24.76 0.32 23.6667 0.32 22.36C0.32 21.9867 0.346667 21.6133 0.4 21.24C0.48 20.84 0.6 20.44 0.76 20.04C1.13333 19.0533 1.69333 18.1867 2.44 17.44C3.21333 16.6667 4.13333 16.0133 5.2 15.48C5.73333 15.24 6.44 15.04 7.32 14.88C8.2 14.6933 8.97333 14.6267 9.64 14.68C9.85333 14.7067 9.96 14.7733 9.96 14.88C9.96 14.96 9.89333 15 9.76 15C8.4 15 7.14667 15.3867 6 16.16C4.85333 16.9067 3.92 17.8 3.2 18.84C2.74667 19.5067 2.37333 20.24 2.08 21.04C1.81333 21.8133 1.68 22.5467 1.68 23.24C1.68 24.0667 1.92 24.7733 2.4 25.36C2.88 25.9733 3.68 26.28 4.8 26.28C5.81333 26.28 6.82667 26.0667 7.84 25.64C8.88 25.24 9.81333 24.7067 10.64 24.04C12.4533 22.6533 14.0533 20.9733 15.44 19C16.8533 17.0267 18.2267 15.0667 19.56 13.12C20.6 11.6267 21.68 10.2133 22.8 8.88C23.9467 7.52 25.0267 6.36 26.04 5.4C27.0533 4.41333 27.9067 3.73333 28.6 3.36L27.88 3.24C27.6933 3.18667 27.4133 3.14667 27.04 3.12C26.6933 3.09333 26.2933 3.08 25.84 3.08C25.0933 3.08 24.2267 3.18667 23.24 3.4C22.28 3.58666 21.32 3.97333 20.36 4.56C19.4 5.14667 18.5333 6.01333 17.76 7.16C17.36 7.77333 17.16 8.46667 17.16 9.24C17.16 9.72 17.28 10.1467 17.52 10.52C17.7867 10.8933 18.2267 11.08 18.84 11.08C18.9467 11.08 19.0533 11.08 19.16 11.08C19.2933 11.0533 19.4133 11.0267 19.52 11C19.5467 11 19.56 11.0133 19.56 11.04C19.56 11.2 19.4133 11.3333 19.12 11.44C19.0133 11.4667 18.9067 11.4933 18.8 11.52C18.6933 11.52 18.5867 11.52 18.48 11.52C17.4933 11.52 16.8 11.2133 16.4 10.6C16 9.98667 15.8 9.30667 15.8 8.56C15.8 7.46667 16.08 6.56 16.64 5.84C17.68 4.42667 18.9067 3.50667 20.32 3.08C21.76 2.65333 23.1733 2.44 24.56 2.44C25.5467 2.44 26.48 2.49333 27.36 2.6C28.2667 2.68 29.0533 2.72 29.72 2.72C30.6 2.72 31.44 2.64 32.24 2.48C33.04 2.29333 33.6 1.94666 33.92 1.44C34.1067 1.57333 34.2 1.8 34.2 2.12C34.2 2.46667 34.0267 2.84 33.68 3.24C33.3333 3.61333 32.7067 3.8 31.8 3.8C31.4533 3.8 31.0533 3.77333 30.6 3.72C30.1733 3.64 29.6933 3.56 29.16 3.48C28.68 3.88 28.1333 4.44 27.52 5.16C26.9333 5.88 26.3467 6.65333 25.76 7.48C25.1733 8.30667 24.6533 9.08 24.2 9.8C23.7467 10.52 23.4 11.08 23.16 11.48C21.96 13.48 20.7467 15.3733 19.52 17.16C18.32 18.92 17.04 20.4933 15.68 21.88C14.3467 23.2667 12.8533 24.3867 11.2 25.24C10.48 25.64 9.57333 26.0267 8.48 26.4C7.41333 26.8 6.41333 27 5.48 27ZM24.1844 34.84C23.3844 34.84 22.8377 34.7733 22.5444 34.64C22.251 34.5333 22.1044 34.44 22.1044 34.36C22.1044 34.2533 22.1977 34.2 22.3844 34.2C22.5177 34.2 22.651 34.2 22.7844 34.2C22.9177 34.2267 23.0377 34.24 23.1444 34.24C24.1044 34.24 25.0644 33.9467 26.0244 33.36C26.9844 32.7733 27.9177 31.9867 28.8244 31C29.731 30.04 30.5977 28.9733 31.4244 27.8C32.251 26.6267 32.9977 25.4667 33.6644 24.32C33.9044 23.8933 34.211 23.3467 34.5844 22.68C34.9577 21.9867 35.371 21.24 35.8244 20.44C35.3177 21.0267 34.851 21.5467 34.4244 22C33.9977 22.4533 33.6777 22.7867 33.4644 23C32.8777 23.5333 32.3177 24 31.7844 24.4C31.251 24.7733 30.691 24.9867 30.1044 25.04C29.1177 25.0933 28.6244 24.5333 28.6244 23.36C28.6244 22.72 28.811 21.96 29.1844 21.08C29.5577 20.1733 30.1177 19.2267 30.8644 18.24C31.3977 17.5733 32.051 16.8667 32.8244 16.12C33.5977 15.3467 34.4377 14.6133 35.3444 13.92C36.2777 13.2267 37.2244 12.6667 38.1844 12.24C39.1444 11.7867 40.0777 11.56 40.9844 11.56C41.3844 11.56 41.6644 11.6267 41.8244 11.76C41.9844 11.8667 42.091 11.9867 42.1444 12.12C42.171 12.2267 42.171 12.32 42.1444 12.4C42.9177 11.8933 43.6377 11.64 44.3044 11.64C44.491 11.64 44.611 11.6667 44.6644 11.72C43.5444 12.4133 42.5444 13.3067 41.6644 14.4C40.811 15.4667 40.011 16.6667 39.2644 18C38.5177 19.3333 37.771 20.7067 37.0244 22.12C36.3044 23.5333 35.531 24.9333 34.7044 26.32C33.9044 27.7067 32.9977 28.9867 31.9844 30.16C30.7844 31.5467 29.491 32.6667 28.1044 33.52C26.7177 34.4 25.411 34.84 24.1844 34.84ZM31.0244 23.8C31.211 23.8 31.4644 23.72 31.7844 23.56C32.1044 23.3733 32.5177 23.0667 33.0244 22.64C33.8777 21.8933 34.7444 20.9867 35.6244 19.92C36.5044 18.8267 37.3577 17.7467 38.1844 16.68C38.7977 15.8267 39.4244 15.0133 40.0644 14.24C40.731 13.4667 41.411 12.8667 42.1044 12.44C42.051 12.44 42.0244 12.4267 42.0244 12.4C41.9177 12.3467 41.7044 12.32 41.3844 12.32C40.4244 12.32 39.2777 12.7867 37.9444 13.72C36.6377 14.6267 35.3444 15.8133 34.0644 17.28C33.1577 18.2933 32.411 19.2933 31.8244 20.28C31.2377 21.24 30.851 22.04 30.6644 22.68C30.611 22.8933 30.5844 23.08 30.5844 23.24C30.5844 23.6133 30.731 23.8 31.0244 23.8ZM54.1591 25.04C53.5991 25.04 53.1991 24.8933 52.9591 24.6C52.7191 24.28 52.5991 23.88 52.5991 23.4C52.5991 22.68 52.8524 21.8667 53.3591 20.96C53.8657 20.0267 54.5191 19.0533 55.3191 18.04C56.1457 17.0267 56.9991 16.0267 57.8791 15.04C58.7857 14.0533 59.6391 13.1467 60.4391 12.32C60.0391 12.32 59.5991 12.4267 59.1191 12.64C58.6657 12.8533 58.1991 13.1067 57.7191 13.4C56.9991 13.88 56.2124 14.52 55.3591 15.32C54.5057 16.12 53.6524 16.9733 52.7991 17.88C51.9457 18.7867 51.1324 19.68 50.3591 20.56C49.7457 21.28 49.2524 21.88 48.8791 22.36C48.5324 22.84 48.2257 23.28 47.9591 23.68C47.7191 24.0533 47.4524 24.48 47.1591 24.96C46.7324 24.96 46.5191 24.7067 46.5191 24.2C46.5191 23.6667 46.6924 23.0267 47.0391 22.28C47.3591 21.5333 47.6391 20.9467 47.8791 20.52C48.5724 19.3467 49.3591 18.12 50.2391 16.84C51.1457 15.5333 51.9857 14.3867 52.7591 13.4C53.1591 12.8667 53.5857 12.48 54.0391 12.24C54.4924 11.9733 54.8791 11.8133 55.1991 11.76C55.5191 11.68 55.6791 11.64 55.6791 11.64C55.5191 11.88 55.1857 12.3867 54.6791 13.16C54.1724 13.9333 53.5857 14.84 52.9191 15.88C52.2524 16.92 51.5724 17.9733 50.8791 19.04C51.9724 17.7867 53.1457 16.5733 54.3991 15.4C55.6524 14.2 56.8524 13.2267 57.9991 12.48C58.3457 12.24 58.7057 12.04 59.0791 11.88C59.4524 11.72 59.8391 11.64 60.2391 11.64C60.9591 11.64 61.3191 11.92 61.3191 12.48C61.3191 12.9067 61.0657 13.4133 60.5591 14C59.9457 14.72 59.2791 15.52 58.5591 16.4C57.8391 17.28 57.1457 18.1733 56.4791 19.08C55.8391 19.9867 55.3057 20.8267 54.8791 21.6C54.4791 22.3733 54.2791 23 54.2791 23.48C54.2791 23.7467 54.3457 23.9467 54.4791 24.08C54.6391 24.1867 54.7724 24.24 54.8791 24.24C55.2791 24.24 55.7191 24.08 56.1991 23.76C56.7057 23.44 57.1857 23.0667 57.6391 22.64C58.1191 22.1867 58.5324 21.76 58.8791 21.36C59.2524 20.96 59.4924 20.6933 59.5991 20.56C59.7057 20.56 59.7591 20.64 59.7591 20.8C59.7591 21.04 59.7057 21.2267 59.5991 21.36C59.2257 21.76 58.7324 22.2533 58.1191 22.84C57.5057 23.4267 56.8524 23.9467 56.1591 24.4C55.4657 24.8267 54.7991 25.04 54.1591 25.04ZM76.9569 9.96C76.4235 9.96 76.1569 9.74667 76.1569 9.32C76.1569 9.18667 76.1969 9.04 76.2769 8.88C76.4102 8.56 76.6369 8.28 76.9569 8.04C77.3035 7.77333 77.6369 7.64 77.9569 7.64C78.4635 7.64 78.7169 7.85333 78.7169 8.28C78.7169 8.68 78.5302 9.05333 78.1569 9.4C77.7835 9.74667 77.3835 9.93333 76.9569 9.96ZM68.2769 25.08C67.5569 25.08 67.0502 24.8933 66.7569 24.52C66.4369 24.12 66.2769 23.6267 66.2769 23.04C66.2769 22.2667 66.5169 21.44 66.9969 20.56C67.4502 19.6533 68.0235 18.76 68.7169 17.88C69.4102 16.9733 70.1169 16.1333 70.8369 15.36C71.5569 14.56 72.1835 13.9067 72.7169 13.4C73.2235 12.8933 73.7435 12.52 74.2769 12.28C74.8102 12.04 75.2635 11.88 75.6369 11.8C76.0369 11.6933 76.2369 11.64 76.2369 11.64C75.6502 12.3067 74.8502 13.2533 73.8369 14.48C72.8235 15.7067 71.8235 17.0133 70.8369 18.4C70.7569 18.5067 70.5702 18.7733 70.2769 19.2C69.9835 19.6267 69.6502 20.12 69.2769 20.68C68.9302 21.24 68.6235 21.7867 68.3569 22.32C68.1169 22.8533 67.9969 23.28 67.9969 23.6C67.9969 24.1067 68.2635 24.36 68.7969 24.36C69.1969 24.36 69.6235 24.2133 70.0769 23.92C70.5569 23.6267 71.0369 23.2667 71.5169 22.84C71.9969 22.4133 72.4235 22 72.7969 21.6C73.1969 21.1733 73.5035 20.8267 73.7169 20.56C73.8235 20.56 73.8769 20.64 73.8769 20.8C73.8769 21.04 73.8235 21.2267 73.7169 21.36C72.7035 22.5333 71.7835 23.4533 70.9569 24.12C70.1569 24.76 69.2635 25.08 68.2769 25.08ZM82.0356 25.16C81.369 25.16 80.9023 25 80.6356 24.68C80.369 24.36 80.2356 23.9467 80.2356 23.44C80.2356 22.56 80.5556 21.56 81.1956 20.44C81.569 19.8 82.0756 19.0667 82.7156 18.24C83.3823 17.3867 84.129 16.4933 84.9556 15.56C85.7823 14.6 86.609 13.6667 87.4356 12.76H84.7556L85.1956 12.2H87.9556C88.7023 11.4267 89.3956 10.7067 90.0356 10.04C90.7023 9.34667 91.249 8.78667 91.6756 8.36C92.849 7.18667 93.929 6.29333 94.9156 5.68C95.929 5.06667 96.729 4.76 97.3156 4.76C96.889 5.13333 96.2623 5.72 95.4356 6.52C94.6356 7.32 93.7423 8.21333 92.7556 9.2C91.7956 10.1867 90.849 11.1867 89.9156 12.2H92.6756L92.2356 12.76H89.4356C88.929 13.3467 88.449 13.8933 87.9956 14.4C87.569 14.9067 87.1956 15.3867 86.8756 15.84C85.6223 17.5467 84.609 18.9467 83.8356 20.04C83.0623 21.1333 82.5556 21.96 82.3156 22.52C82.129 22.9733 82.0356 23.3467 82.0356 23.64C82.0356 24.1467 82.2756 24.4 82.7556 24.4C83.1556 24.4 83.5823 24.2667 84.0356 24C84.7023 23.6267 85.369 23.0933 86.0356 22.4C86.729 21.68 87.289 21.0667 87.7156 20.56C87.8223 20.56 87.8756 20.64 87.8756 20.8C87.8756 21.04 87.8223 21.2267 87.7156 21.36C86.7023 22.5333 85.7556 23.4667 84.8756 24.16C83.9956 24.8267 83.049 25.16 82.0356 25.16ZM98.1572 25.28C96.9305 25.28 96.0639 25.0133 95.5572 24.48C95.0505 23.9467 94.7972 23.2267 94.7972 22.32C94.7972 21.44 95.0372 20.52 95.5172 19.56C96.0239 18.5733 96.6505 17.64 97.3972 16.76C97.8505 16.2267 98.4105 15.6667 99.0772 15.08C99.7439 14.4933 100.464 13.9467 101.237 13.44C102.011 12.9067 102.771 12.48 103.517 12.16C104.291 11.8133 104.971 11.64 105.557 11.64C105.877 11.64 106.171 11.72 106.437 11.88C106.704 12.0133 106.837 12.32 106.837 12.8C106.837 13.4667 106.517 14.1067 105.877 14.72C105.237 15.3067 104.517 15.8533 103.717 16.36C102.811 16.9467 101.864 17.44 100.877 17.84C99.8905 18.24 99.0372 18.5467 98.3172 18.76C97.9172 19.4 97.5972 20.0533 97.3572 20.72C97.1172 21.3867 96.9972 22.04 96.9972 22.68C96.9972 23.3733 97.1572 23.8533 97.4772 24.12C97.8239 24.36 98.2239 24.48 98.6772 24.48C99.5039 24.48 100.251 24.2933 100.917 23.92C101.611 23.52 102.251 23.0133 102.837 22.4C103.424 21.7867 103.984 21.1733 104.517 20.56C104.624 20.56 104.677 20.64 104.677 20.8C104.677 21.04 104.624 21.2267 104.517 21.36C103.984 21.9733 103.397 22.5867 102.757 23.2C102.144 23.8133 101.464 24.32 100.717 24.72C99.9705 25.0933 99.1172 25.28 98.1572 25.28ZM98.7972 18.2C99.4905 17.96 100.304 17.6267 101.237 17.2C102.197 16.7733 103.037 16.3067 103.757 15.8C103.917 15.6933 104.197 15.48 104.597 15.16C104.997 14.8133 105.371 14.44 105.717 14.04C106.064 13.6133 106.237 13.24 106.237 12.92C106.237 12.4933 106.024 12.28 105.597 12.28C105.144 12.28 104.624 12.48 104.037 12.88C103.477 13.28 103.024 13.6267 102.677 13.92C102.037 14.5067 101.371 15.16 100.677 15.88C99.9839 16.6 99.3572 17.3733 98.7972 18.2ZM123.298 35.88C121.724 35.88 120.604 35.4933 119.938 34.72C119.271 33.9467 118.938 33.0267 118.938 31.96C118.938 30.9733 119.178 29.9467 119.658 28.88C120.138 27.8133 120.751 26.88 121.498 26.08C122.271 25.2533 123.178 24.5333 124.218 23.92C125.258 23.3067 126.338 22.8667 127.458 22.6C127.538 22.2267 127.698 21.7733 127.938 21.24C128.551 19.8267 129.391 18.32 130.458 16.72C131.524 15.12 132.684 13.56 133.938 12.04C135.218 10.52 136.418 9.2 137.538 8.08C137.911 7.68 138.444 7.17333 139.138 6.56C139.858 5.94667 140.618 5.36 141.418 4.8C142.218 4.24 142.938 3.84 143.578 3.6C143.338 3.62667 142.924 3.58666 142.338 3.48C141.778 3.37333 141.311 3.29333 140.938 3.24C140.511 3.18667 139.924 3.12 139.178 3.04C138.431 2.96 137.631 2.92 136.778 2.92C135.738 2.92 134.644 3.02667 133.498 3.24C132.351 3.42667 131.271 3.78667 130.258 4.32C129.271 4.85333 128.431 5.62667 127.738 6.64C127.578 6.90667 127.431 7.2 127.298 7.52C127.191 7.84 127.138 8.18667 127.138 8.56C127.138 9.06667 127.258 9.53333 127.498 9.96C127.764 10.36 128.218 10.56 128.858 10.56C128.964 10.56 129.071 10.56 129.178 10.56C129.284 10.5333 129.391 10.5067 129.498 10.48C129.524 10.48 129.538 10.4933 129.538 10.52C129.538 10.68 129.391 10.8133 129.098 10.92C128.991 10.9467 128.884 10.9733 128.778 11C128.671 11 128.564 11 128.458 11C127.471 11 126.778 10.7067 126.378 10.12C126.004 9.50667 125.818 8.82667 125.818 8.08C125.818 7.09333 126.084 6.24 126.618 5.52C127.151 4.77333 127.844 4.17333 128.698 3.72C129.551 3.24 130.458 2.89333 131.418 2.68C132.511 2.44 133.658 2.32 134.858 2.32C135.391 2.32 135.924 2.33333 136.458 2.36C136.991 2.38667 137.524 2.42667 138.058 2.48C138.831 2.53333 139.644 2.61333 140.498 2.72C141.378 2.8 142.244 2.84 143.098 2.84C143.471 2.84 143.818 2.82667 144.138 2.8C144.484 2.77333 144.831 2.73333 145.178 2.68C145.311 2.70667 145.311 2.86667 145.178 3.16C145.044 3.45333 144.751 3.62667 144.298 3.68C143.658 4.18667 143.004 4.77333 142.338 5.44C141.698 6.08 141.111 6.69333 140.578 7.28C140.071 7.84 139.684 8.28 139.418 8.6C139.231 8.78667 138.818 9.26667 138.178 10.04C137.538 10.8133 136.778 11.7467 135.898 12.84C135.044 13.9333 134.178 15.0933 133.298 16.32C132.418 17.52 131.631 18.68 130.938 19.8C130.644 20.2533 130.378 20.7067 130.138 21.16C129.924 21.5867 129.751 21.9867 129.618 22.36C129.938 22.36 130.258 22.3733 130.578 22.4C130.898 22.4267 131.218 22.4667 131.538 22.52C131.804 22.5467 131.938 22.6 131.938 22.68C131.938 22.7333 131.858 22.76 131.698 22.76C131.538 22.76 131.364 22.7467 131.178 22.72C131.018 22.6933 130.858 22.68 130.698 22.68C130.271 22.68 129.858 22.72 129.458 22.8C129.378 23.0133 129.324 23.2267 129.298 23.44C129.271 23.6267 129.258 23.8 129.258 23.96C129.258 24.2267 129.311 24.4 129.418 24.48C129.524 24.56 129.684 24.6 129.898 24.6C130.431 24.6 131.031 24.3867 131.698 23.96C132.364 23.5333 133.071 22.9467 133.818 22.2C134.938 21 136.124 19.6933 137.378 18.28C138.631 16.84 139.871 15.3733 141.098 13.88C142.351 12.3867 143.498 10.9733 144.538 9.64C144.591 9.50667 144.644 9.37333 144.698 9.24C144.778 9.08 144.831 8.93333 144.858 8.8C145.044 8.26667 145.298 8 145.618 8C145.804 8 145.858 8.13333 145.778 8.4C145.271 9.92 144.644 11.6533 143.898 13.6C143.151 15.5467 142.271 17.5467 141.258 19.6C140.244 21.6533 139.111 23.64 137.858 25.56C136.604 27.5067 135.218 29.2533 133.698 30.8C132.204 32.3467 130.591 33.5733 128.858 34.48C127.124 35.4133 125.271 35.88 123.298 35.88ZM122.938 35.24C124.111 35.24 125.218 34.9467 126.258 34.36C127.324 33.8 128.338 33.08 129.298 32.2C130.258 31.3467 131.151 30.4667 131.978 29.56C133.018 28.44 134.124 27.0933 135.298 25.52C136.471 23.9467 137.618 22.28 138.738 20.52C139.884 18.76 140.924 17.0133 141.858 15.28C142.818 13.52 143.604 11.92 144.218 10.48C143.258 11.9467 142.191 13.4267 141.018 14.92C139.871 16.4133 138.698 17.84 137.498 19.2C136.324 20.5333 135.204 21.7067 134.138 22.72C133.338 23.4933 132.498 24.12 131.618 24.6C130.764 25.08 129.951 25.3333 129.178 25.36C128.671 25.36 128.244 25.2 127.898 24.88C127.551 24.56 127.378 24.0667 127.378 23.4C126.471 23.8 125.604 24.3067 124.778 24.92C123.951 25.5333 123.258 26.2 122.698 26.92C122.111 27.6133 121.578 28.44 121.098 29.4C120.591 30.3867 120.338 31.36 120.338 32.32C120.311 33.1467 120.498 33.84 120.898 34.4C121.298 34.96 121.978 35.24 122.938 35.24ZM152.08 25.2C151.307 25.2 150.76 25.0133 150.44 24.64C150.094 24.24 149.92 23.7467 149.92 23.16C149.92 22.4133 150.134 21.5333 150.56 20.52C151.014 19.5067 151.614 18.48 152.36 17.44C153.107 16.4 153.947 15.44 154.88 14.56C155.814 13.6533 156.76 12.9333 157.72 12.4C158.707 11.84 159.654 11.56 160.56 11.56C161.227 11.56 161.707 11.7333 162 12.08C162.294 12.4267 162.44 12.88 162.44 13.44C162.44 14.1867 162.227 15.08 161.8 16.12C161.374 17.1333 160.787 18.1733 160.04 19.24C159.32 20.28 158.507 21.2533 157.6 22.16C156.72 23.0667 155.8 23.8 154.84 24.36C153.88 24.92 152.96 25.2 152.08 25.2ZM152.56 24.44C153.12 24.44 153.787 24.16 154.56 23.6C155.36 23.0133 156.174 22.2667 157 21.36C157.827 20.4533 158.587 19.4933 159.28 18.48C160 17.44 160.574 16.4667 161 15.56C161.454 14.6267 161.68 13.8667 161.68 13.28C161.68 12.64 161.374 12.32 160.76 12.32C160.254 12.32 159.614 12.6267 158.84 13.24C158.094 13.8267 157.307 14.5867 156.48 15.52C155.68 16.4533 154.92 17.44 154.2 18.48C153.48 19.52 152.894 20.5067 152.44 21.44C152.014 22.3733 151.8 23.1067 151.8 23.64C151.8 24.1733 152.054 24.44 152.56 24.44ZM169.113 25C168.473 25 168.019 24.8533 167.753 24.56C167.486 24.2667 167.353 23.8933 167.353 23.44C167.353 22.9867 167.459 22.4933 167.673 21.96C167.859 21.4 168.099 20.8533 168.393 20.32C168.899 19.4667 169.473 18.6133 170.113 17.76C170.779 16.88 171.446 16.0667 172.113 15.32C172.806 14.5733 173.419 13.9333 173.953 13.4C174.459 12.8933 174.979 12.52 175.513 12.28C176.046 12.04 176.499 11.88 176.873 11.8C177.273 11.6933 177.473 11.64 177.473 11.64C176.886 12.3067 176.086 13.2533 175.073 14.48C174.086 15.7067 173.086 17.0133 172.073 18.4C171.966 18.5333 171.766 18.8133 171.473 19.24C171.206 19.6667 170.913 20.1467 170.593 20.68C170.273 21.1867 169.993 21.6933 169.753 22.2C169.539 22.68 169.433 23.0667 169.433 23.36C169.433 23.6533 169.593 23.7867 169.913 23.76C170.259 23.7333 170.713 23.48 171.273 23C171.833 22.52 172.433 21.9333 173.073 21.24C173.713 20.5467 174.313 19.8667 174.873 19.2C175.459 18.5067 175.939 17.9333 176.313 17.48C176.606 17.1333 176.966 16.7067 177.393 16.2C177.819 15.6667 178.259 15.12 178.713 14.56C179.166 14 179.579 13.5067 179.953 13.08C180.379 12.6 180.833 12.2667 181.313 12.08C181.793 11.8667 182.206 11.7467 182.553 11.72C182.926 11.6667 183.113 11.64 183.113 11.64C182.899 11.9067 182.473 12.4267 181.833 13.2C181.219 13.9733 180.526 14.8933 179.753 15.96C178.979 17 178.246 18.0933 177.553 19.24C176.859 20.36 176.326 21.4267 175.953 22.44C175.766 22.8933 175.673 23.2667 175.673 23.56C175.673 23.8267 175.739 24.0133 175.873 24.12C176.006 24.2 176.153 24.24 176.313 24.24C176.686 24.24 177.099 24.08 177.553 23.76C178.033 23.44 178.486 23.0667 178.913 22.64C179.366 22.1867 179.766 21.76 180.113 21.36C180.459 20.96 180.686 20.6933 180.793 20.56C180.899 20.56 180.953 20.64 180.953 20.8C180.953 21.04 180.899 21.2267 180.793 21.36C180.393 21.84 179.899 22.36 179.313 22.92C178.753 23.48 178.153 23.9733 177.513 24.4C176.899 24.8 176.286 25 175.673 25C175.006 25 174.539 24.84 174.273 24.52C174.006 24.2 173.873 23.8 173.873 23.32C173.873 22.8667 173.966 22.3733 174.153 21.84C174.339 21.28 174.566 20.76 174.833 20.28C174.513 20.6 174.126 21.0267 173.673 21.56C173.246 22.0667 172.766 22.5867 172.233 23.12C171.699 23.6533 171.166 24.1067 170.633 24.48C170.099 24.8267 169.593 25 169.113 25ZM193.011 25.08C192.344 25.08 191.864 24.9067 191.571 24.56C191.304 24.2133 191.171 23.7867 191.171 23.28C191.171 22.96 191.211 22.64 191.291 22.32C191.451 21.52 191.851 20.68 192.491 19.8C193.131 18.92 193.891 18.04 194.771 17.16C195.651 16.28 196.544 15.48 197.451 14.76C198.384 14.04 199.211 13.44 199.931 12.96C199.611 13.0133 199.198 13.04 198.691 13.04C198.104 13.04 197.491 13.0133 196.851 12.96C196.211 12.88 195.771 12.76 195.531 12.6C195.424 12.7867 195.158 13.1467 194.731 13.68C194.331 14.1867 193.824 14.8 193.211 15.52C192.624 16.24 192.011 16.9733 191.371 17.72C190.731 18.4667 190.131 19.1733 189.571 19.84C189.011 20.48 188.558 20.9867 188.211 21.36C187.864 21.76 187.398 22.24 186.811 22.8C186.198 23.3333 185.598 23.8133 185.011 24.24C184.398 24.6667 183.891 24.88 183.491 24.88C183.304 24.88 183.198 24.84 183.171 24.76C183.118 24.68 183.091 24.6267 183.091 24.6C183.518 24.6 184.158 24.3067 185.011 23.72C185.838 23.1067 186.904 22.0533 188.211 20.56C189.784 18.7467 191.264 16.8 192.651 14.72C194.064 12.6133 195.331 10.4267 196.451 8.16H196.491C196.838 8.16 197.011 8.49333 197.011 9.16C197.011 9.77333 196.798 10.4933 196.371 11.32C196.264 11.5067 196.104 11.76 195.891 12.08C196.424 12.1867 196.958 12.2667 197.491 12.32C198.024 12.3467 198.518 12.36 198.971 12.36C199.344 12.36 199.691 12.3467 200.011 12.32C200.331 12.2933 200.584 12.2533 200.771 12.2C201.011 12.2 201.131 12.2533 201.131 12.36C201.158 12.44 201.144 12.5067 201.091 12.56C200.984 12.6667 200.758 12.9067 200.411 13.28C200.091 13.6533 199.718 14.0667 199.291 14.52C198.891 14.9467 198.518 15.36 198.171 15.76C197.824 16.1333 197.571 16.4133 197.411 16.6C196.584 17.5867 195.758 18.6667 194.931 19.84C194.131 21.0133 193.571 22.0667 193.251 23C193.144 23.24 193.091 23.4667 193.091 23.68C193.091 24.0533 193.264 24.24 193.611 24.24C193.984 24.24 194.451 24.0267 195.011 23.6C195.571 23.1467 196.131 22.6267 196.691 22.04C197.278 21.4533 197.744 20.96 198.091 20.56C198.198 20.56 198.251 20.64 198.251 20.8C198.251 21.04 198.198 21.2267 198.091 21.36C196.864 22.8 195.864 23.7867 195.091 24.32C194.344 24.8267 193.651 25.08 193.011 25.08ZM217.82 26.24C217.58 26.0533 217.46 25.7733 217.46 25.4C217.46 25.0267 217.593 24.6533 217.86 24.28C218.1 23.88 218.553 23.5867 219.22 23.4C219.567 23.2933 220.02 23.24 220.58 23.24C221.513 23.24 222.687 23.3733 224.1 23.64C225.54 23.9067 227.327 24.1867 229.46 24.48C229.94 24.5333 230.433 24.5867 230.94 24.64C231.447 24.6933 231.98 24.72 232.54 24.72C232.887 24.72 233.233 24.7067 233.58 24.68C233.927 24.6533 234.273 24.6133 234.62 24.56C235.553 24.4 236.66 24.08 237.94 23.6C239.22 23.12 240.5 22.4 241.78 21.44C243.06 20.4533 244.193 19.1733 245.18 17.6C246.193 16 246.887 14.0133 247.26 11.64C247.313 11.2667 247.353 10.92 247.38 10.6C247.407 10.2533 247.42 9.92 247.42 9.6C247.42 7.28 246.7 5.52 245.26 4.32C244.247 5.25333 243.247 6.33333 242.26 7.56C241.3 8.76 240.353 10.0133 239.42 11.32C238.513 12.6 237.647 13.8267 236.82 15C236.18 15.88 235.513 16.8133 234.82 17.8C234.127 18.7867 233.407 19.72 232.66 20.6C231.913 21.4533 231.14 22.16 230.34 22.72C229.54 23.2533 228.727 23.5467 227.9 23.6C228.54 23.1467 229.193 22.52 229.86 21.72C230.527 20.8933 231.193 19.9867 231.86 19C232.527 18.0133 233.167 17.0267 233.78 16.04C234.42 15.0533 235.02 14.1733 235.58 13.4C236.833 11.5867 238.207 9.82667 239.7 8.12C241.22 6.38667 242.753 4.90667 244.3 3.68C243.047 2.98667 241.46 2.64 239.54 2.64C237.753 2.64 236.047 2.92 234.42 3.48C232.82 4.01333 231.353 4.72 230.02 5.6C228.687 6.48 227.54 7.46667 226.58 8.56C225.62 9.62667 224.873 10.6933 224.34 11.76C223.807 12.8267 223.54 13.8133 223.54 14.72C223.54 15.5733 223.807 16.2933 224.34 16.88C224.9 17.4667 225.78 17.8133 226.98 17.92C227.167 17.92 227.26 17.96 227.26 18.04C227.26 18.1467 227.14 18.2 226.9 18.2C225.327 18.0667 224.167 17.6133 223.42 16.84C222.673 16.0667 222.3 15.12 222.3 14C222.3 12.8 222.687 11.52 223.46 10.16C224.26 8.8 225.407 7.50667 226.9 6.28C228.393 5.05333 230.193 4.05333 232.3 3.28C234.407 2.50667 236.78 2.12 239.42 2.12C240.487 2.14667 241.487 2.24 242.42 2.4C243.38 2.53333 244.26 2.77333 245.06 3.12C246.047 2.42667 247.007 1.88 247.94 1.48C248.873 1.08 249.767 0.879998 250.62 0.879998C251.1 0.879998 251.58 0.959999 252.06 1.12C252.54 1.25333 252.94 1.49333 253.26 1.84C253.607 2.18666 253.78 2.69333 253.78 3.36C253.62 2.82667 253.247 2.4 252.66 2.08C252.073 1.73333 251.46 1.56 250.82 1.56C250.047 1.56 249.26 1.74667 248.46 2.12C247.66 2.49333 246.873 3 246.1 3.64C247.193 4.28 248.047 5.14667 248.66 6.24C249.3 7.33333 249.62 8.70667 249.62 10.36C249.62 12.0667 249.287 13.6933 248.62 15.24C247.98 16.7867 247.127 18.1733 246.06 19.4C245.02 20.6267 243.9 21.6533 242.7 22.48C241.527 23.3067 240.42 23.8667 239.38 24.16C238.34 24.48 237.287 24.7467 236.22 24.96C235.153 25.1733 234.06 25.28 232.94 25.28C231.873 25.28 230.673 25.2 229.34 25.04C228.033 24.9067 226.7 24.7867 225.34 24.68C225.02 24.6533 224.7 24.64 224.38 24.64C224.06 24.6133 223.713 24.6 223.34 24.6C222.193 24.6 221.087 24.72 220.02 24.96C218.98 25.1733 218.247 25.6 217.82 26.24ZM260.758 25.08C260.091 25.08 259.611 24.9067 259.318 24.56C259.051 24.2133 258.918 23.7867 258.918 23.28C258.918 22.96 258.958 22.64 259.038 22.32C259.198 21.52 259.598 20.68 260.238 19.8C260.878 18.92 261.638 18.04 262.518 17.16C263.398 16.28 264.291 15.48 265.198 14.76C266.131 14.04 266.958 13.44 267.678 12.96C267.358 13.0133 266.944 13.04 266.438 13.04C265.851 13.04 265.238 13.0133 264.598 12.96C263.958 12.88 263.518 12.76 263.278 12.6C263.171 12.7867 262.904 13.1467 262.478 13.68C262.078 14.1867 261.571 14.8 260.958 15.52C260.371 16.24 259.758 16.9733 259.118 17.72C258.478 18.4667 257.878 19.1733 257.318 19.84C256.758 20.48 256.304 20.9867 255.958 21.36C255.611 21.76 255.144 22.24 254.558 22.8C253.944 23.3333 253.344 23.8133 252.758 24.24C252.144 24.6667 251.638 24.88 251.238 24.88C251.051 24.88 250.944 24.84 250.918 24.76C250.864 24.68 250.838 24.6267 250.838 24.6C251.264 24.6 251.904 24.3067 252.758 23.72C253.584 23.1067 254.651 22.0533 255.958 20.56C257.531 18.7467 259.011 16.8 260.398 14.72C261.811 12.6133 263.078 10.4267 264.198 8.16H264.238C264.584 8.16 264.758 8.49333 264.758 9.16C264.758 9.77333 264.544 10.4933 264.118 11.32C264.011 11.5067 263.851 11.76 263.638 12.08C264.171 12.1867 264.704 12.2667 265.238 12.32C265.771 12.3467 266.264 12.36 266.718 12.36C267.091 12.36 267.438 12.3467 267.758 12.32C268.078 12.2933 268.331 12.2533 268.518 12.2C268.758 12.2 268.878 12.2533 268.878 12.36C268.904 12.44 268.891 12.5067 268.838 12.56C268.731 12.6667 268.504 12.9067 268.158 13.28C267.838 13.6533 267.464 14.0667 267.038 14.52C266.638 14.9467 266.264 15.36 265.918 15.76C265.571 16.1333 265.318 16.4133 265.158 16.6C264.331 17.5867 263.504 18.6667 262.678 19.84C261.878 21.0133 261.318 22.0667 260.998 23C260.891 23.24 260.838 23.4667 260.838 23.68C260.838 24.0533 261.011 24.24 261.358 24.24C261.731 24.24 262.198 24.0267 262.758 23.6C263.318 23.1467 263.878 22.6267 264.438 22.04C265.024 21.4533 265.491 20.96 265.838 20.56C265.944 20.56 265.998 20.64 265.998 20.8C265.998 21.04 265.944 21.2267 265.838 21.36C264.611 22.8 263.611 23.7867 262.838 24.32C262.091 24.8267 261.398 25.08 260.758 25.08ZM276.281 25.28C275.054 25.28 274.187 25.0133 273.681 24.48C273.174 23.9467 272.921 23.2267 272.921 22.32C272.921 21.44 273.161 20.52 273.641 19.56C274.147 18.5733 274.774 17.64 275.521 16.76C275.974 16.2267 276.534 15.6667 277.201 15.08C277.867 14.4933 278.587 13.9467 279.361 13.44C280.134 12.9067 280.894 12.48 281.641 12.16C282.414 11.8133 283.094 11.64 283.681 11.64C284.001 11.64 284.294 11.72 284.561 11.88C284.827 12.0133 284.961 12.32 284.961 12.8C284.961 13.4667 284.641 14.1067 284.001 14.72C283.361 15.3067 282.641 15.8533 281.841 16.36C280.934 16.9467 279.987 17.44 279.001 17.84C278.014 18.24 277.161 18.5467 276.441 18.76C276.041 19.4 275.721 20.0533 275.481 20.72C275.241 21.3867 275.121 22.04 275.121 22.68C275.121 23.3733 275.281 23.8533 275.601 24.12C275.947 24.36 276.347 24.48 276.801 24.48C277.627 24.48 278.374 24.2933 279.041 23.92C279.734 23.52 280.374 23.0133 280.961 22.4C281.547 21.7867 282.107 21.1733 282.641 20.56C282.747 20.56 282.801 20.64 282.801 20.8C282.801 21.04 282.747 21.2267 282.641 21.36C282.107 21.9733 281.521 22.5867 280.881 23.2C280.267 23.8133 279.587 24.32 278.841 24.72C278.094 25.0933 277.241 25.28 276.281 25.28ZM276.921 18.2C277.614 17.96 278.427 17.6267 279.361 17.2C280.321 16.7733 281.161 16.3067 281.881 15.8C282.041 15.6933 282.321 15.48 282.721 15.16C283.121 14.8133 283.494 14.44 283.841 14.04C284.187 13.6133 284.361 13.24 284.361 12.92C284.361 12.4933 284.147 12.28 283.721 12.28C283.267 12.28 282.747 12.48 282.161 12.88C281.601 13.28 281.147 13.6267 280.801 13.92C280.161 14.5067 279.494 15.16 278.801 15.88C278.107 16.6 277.481 17.3733 276.921 18.2ZM290.775 25.04C289.788 25.04 289.295 24.48 289.295 23.36C289.295 22.72 289.481 21.96 289.855 21.08C290.228 20.1733 290.788 19.2267 291.535 18.24C292.068 17.5733 292.721 16.8667 293.495 16.12C294.268 15.3467 295.108 14.6133 296.015 13.92C296.948 13.2267 297.895 12.6667 298.855 12.24C299.815 11.7867 300.748 11.56 301.655 11.56C302.055 11.56 302.335 11.6267 302.495 11.76C302.655 11.8667 302.761 11.9867 302.815 12.12C302.868 12.2267 302.868 12.3067 302.815 12.36C302.788 12.4133 302.748 12.4267 302.695 12.4C302.588 12.3467 302.375 12.32 302.055 12.32C301.095 12.32 299.948 12.7867 298.615 13.72C297.308 14.6267 296.015 15.8133 294.735 17.28C293.828 18.2933 293.081 19.2933 292.495 20.28C291.908 21.24 291.521 22.04 291.335 22.68C291.281 22.8933 291.255 23.08 291.255 23.24C291.255 23.6133 291.401 23.8 291.695 23.8C291.881 23.8 292.135 23.72 292.455 23.56C292.775 23.3733 293.188 23.0667 293.695 22.64C294.495 21.9467 295.281 21.1333 296.055 20.2C296.855 19.2667 297.641 18.32 298.415 17.36C299.188 16.3733 299.935 15.4667 300.655 14.64C301.401 13.8133 302.108 13.1867 302.775 12.76C303.628 12.2 304.215 11.88 304.535 11.8C304.881 11.72 305.161 11.6667 305.375 11.64C305.241 11.8 304.948 12.1733 304.495 12.76C304.041 13.3467 303.561 13.9733 303.055 14.64C302.548 15.28 302.135 15.8133 301.815 16.24C301.335 16.9333 300.815 17.68 300.255 18.48C299.721 19.28 299.228 20.04 298.775 20.76C298.348 21.4533 298.055 22.0267 297.895 22.48C297.761 22.9333 297.695 23.2667 297.695 23.48C297.695 23.9067 297.868 24.12 298.215 24.12C298.455 24.12 298.735 24.0267 299.055 23.84C299.401 23.6267 299.748 23.3867 300.095 23.12C300.548 22.7467 300.975 22.36 301.375 21.96C301.775 21.5333 302.188 21.0667 302.615 20.56C302.721 20.56 302.775 20.64 302.775 20.8C302.775 21.04 302.721 21.2267 302.615 21.36C302.268 21.76 301.841 22.2 301.335 22.68C300.855 23.16 300.375 23.5867 299.895 23.96C299.548 24.2533 299.148 24.5067 298.695 24.72C298.241 24.9333 297.801 25.04 297.375 25.04C296.761 25.04 296.335 24.8933 296.095 24.6C295.855 24.3067 295.735 23.9333 295.735 23.48C295.735 22.9467 295.855 22.3733 296.095 21.76C296.335 21.12 296.601 20.52 296.895 19.96C296.548 20.3867 296.108 20.9067 295.575 21.52C295.041 22.1067 294.561 22.6 294.135 23C293.548 23.5333 292.988 24.0133 292.455 24.44C291.921 24.84 291.361 25.04 290.775 25.04ZM321.597 25.04C321.037 25.04 320.637 24.8933 320.397 24.6C320.157 24.28 320.037 23.88 320.037 23.4C320.037 22.68 320.29 21.8667 320.797 20.96C321.303 20.0267 321.957 19.0533 322.757 18.04C323.583 17.0267 324.437 16.0267 325.317 15.04C326.223 14.0533 327.077 13.1467 327.877 12.32C327.477 12.32 327.037 12.4267 326.557 12.64C326.103 12.8533 325.637 13.1067 325.157 13.4C324.41 13.9067 323.583 14.5733 322.677 15.4C321.797 16.2267 320.917 17.12 320.037 18.08C319.157 19.0133 318.33 19.92 317.557 20.8C317.13 21.4667 316.743 22.0933 316.397 22.68C316.05 23.2667 315.81 23.7733 315.677 24.2C315.143 23.9867 314.877 23.6 314.877 23.04C314.877 22.6133 314.997 22.12 315.237 21.56C315.717 20.4933 316.343 19.4267 317.117 18.36C317.89 17.2933 318.717 16.2533 319.597 15.24C320.503 14.2 321.343 13.2133 322.117 12.28C321.637 12.28 321.037 12.4933 320.317 12.92C319.597 13.32 318.877 13.7867 318.157 14.32C317.463 14.8533 316.903 15.3467 316.477 15.8C315.917 16.3867 315.25 17.12 314.477 18C313.73 18.88 312.983 19.76 312.237 20.64C311.517 21.4933 310.93 22.2267 310.477 22.84C309.997 23.48 309.677 23.9733 309.517 24.32C309.33 24.6667 309.21 24.88 309.157 24.96C308.73 24.96 308.517 24.7067 308.517 24.2C308.517 23.6667 308.69 23.0267 309.037 22.28C309.357 21.5333 309.637 20.9467 309.877 20.52C310.57 19.3467 311.357 18.12 312.237 16.84C313.143 15.5333 313.983 14.3867 314.757 13.4C315.157 12.8667 315.583 12.48 316.037 12.24C316.49 11.9733 316.877 11.8133 317.197 11.76C317.517 11.68 317.677 11.64 317.677 11.64C317.517 11.88 317.183 12.3733 316.677 13.12C316.197 13.8667 315.637 14.7467 314.997 15.76C314.357 16.7467 313.703 17.7733 313.037 18.84C314.103 17.5333 315.223 16.28 316.397 15.08C317.57 13.88 318.69 12.9733 319.757 12.36C320.637 11.88 321.463 11.64 322.237 11.64C322.85 11.64 323.157 11.8533 323.157 12.28C323.157 12.68 322.943 13.16 322.517 13.72C322.33 13.96 322.077 14.3067 321.757 14.76C321.437 15.2133 321.143 15.6267 320.877 16C320.637 16.3733 320.517 16.56 320.517 16.56L320.277 16.92C321.13 16.04 321.997 15.2133 322.877 14.44C323.757 13.6667 324.61 13.0133 325.437 12.48C325.783 12.24 326.143 12.04 326.517 11.88C326.89 11.72 327.277 11.64 327.677 11.64C328.397 11.64 328.757 11.92 328.757 12.48C328.757 12.9067 328.503 13.4133 327.997 14C327.383 14.72 326.717 15.52 325.997 16.4C325.277 17.28 324.583 18.1733 323.917 19.08C323.277 19.9867 322.743 20.8267 322.317 21.6C321.917 22.3733 321.717 23 321.717 23.48C321.717 23.7467 321.783 23.9467 321.917 24.08C322.077 24.1867 322.21 24.24 322.317 24.24C322.717 24.24 323.157 24.08 323.637 23.76C324.143 23.44 324.623 23.0667 325.077 22.64C325.557 22.1867 325.97 21.76 326.317 21.36C326.69 20.96 326.93 20.6933 327.037 20.56C327.143 20.56 327.197 20.64 327.197 20.8C327.197 21.04 327.143 21.2267 327.037 21.36C326.663 21.76 326.17 22.2533 325.557 22.84C324.943 23.4267 324.29 23.9467 323.597 24.4C322.903 24.8267 322.237 25.04 321.597 25.04ZM337.745 25.28C337.212 25.28 336.692 25.2267 336.185 25.12C335.705 25.0133 335.278 24.8267 334.905 24.56C334.612 24.3467 334.372 24.0533 334.185 23.68C333.972 23.3067 333.865 22.8267 333.865 22.24C333.865 21.5467 334.038 21.0133 334.385 20.64C334.705 20.2667 335.052 20.08 335.425 20.08C335.718 19.7067 336.118 19.1867 336.625 18.52C337.132 17.8267 337.692 17.0667 338.305 16.24C338.945 15.4133 339.598 14.5867 340.265 13.76C340.932 12.9067 341.558 12.1467 342.145 11.48C342.518 11.1067 342.905 10.7067 343.305 10.28C343.732 9.85333 344.198 9.49333 344.705 9.2C345.238 8.88 345.798 8.72 346.385 8.72C346.838 8.72 347.158 8.82667 347.345 9.04C347.558 9.25333 347.665 9.50667 347.665 9.8C347.665 9.96 347.625 10.1067 347.545 10.24C347.252 10.1867 346.838 10.24 346.305 10.4C345.772 10.5333 345.185 10.7867 344.545 11.16C343.852 11.5867 343.145 12.12 342.425 12.76C342.398 13.08 342.358 13.5733 342.305 14.24C342.278 14.88 342.238 15.6133 342.185 16.44C342.132 17.24 342.038 18.0533 341.905 18.88C341.798 19.68 341.652 20.3867 341.465 21C341.332 21.4267 341.118 21.9067 340.825 22.44C340.532 22.9467 340.132 23.4267 339.625 23.88C339.145 24.3067 338.545 24.6 337.825 24.76C338.785 24.76 339.585 24.6133 340.225 24.32C340.865 24.0267 341.398 23.6933 341.825 23.32C342.278 22.92 342.638 22.6 342.905 22.36C343.118 22.1467 343.412 21.84 343.785 21.44C344.158 21.04 344.425 20.7467 344.585 20.56C344.692 20.56 344.745 20.64 344.745 20.8C344.745 21.04 344.692 21.2267 344.585 21.36C343.465 22.56 342.532 23.44 341.785 24C341.118 24.5067 340.438 24.84 339.745 25C339.052 25.1867 338.385 25.28 337.745 25.28ZM336.345 24.52C336.798 24.52 337.212 24.3467 337.585 24C337.985 23.6267 338.345 23.2 338.665 22.72C338.985 22.2133 339.238 21.7467 339.425 21.32C339.718 20.68 340.025 19.8667 340.345 18.88C340.665 17.8933 340.972 16.8933 341.265 15.88C341.558 14.84 341.798 13.9467 341.985 13.2C341.238 13.92 340.492 14.7067 339.745 15.56C339.025 16.4133 338.358 17.2267 337.745 18C337.132 18.7733 336.625 19.4133 336.225 19.92C335.878 20.3733 335.612 20.8533 335.425 21.36C335.238 21.8667 335.145 22.3467 335.145 22.8C335.145 23.3067 335.252 23.72 335.465 24.04C335.678 24.36 335.972 24.52 336.345 24.52Z" fill="white"/>
</svg>
