<svg width="20" height="17" viewBox="0 0 20 17" fill="none" xmlns="http://www.w3.org/2000/svg">
<path d="M19.295 8.95933C19.0515 8.96318 18.8333 9.1856 18.8372 9.42613V9.64872L19.7674 9.42613C19.7713 9.1808 19.5433 8.95548 19.295 8.95933ZM19.295 8.95933L19.3021 9.41859L19.3021 9.41875L19.3022 9.42613L19.3027 9.45927C19.2877 9.45951 19.2782 9.45618 19.275 9.45478C19.2747 9.45467 19.2745 9.45457 19.2743 9.45448C19.274 9.45392 19.2736 9.45319 19.2732 9.45226C19.2715 9.44835 19.2684 9.43947 19.2676 9.42613C19.2675 9.42393 19.2674 9.4216 19.2674 9.41915C19.2674 9.41884 19.2674 9.41852 19.2674 9.4182L19.2674 9.4182V9.41915V9.42613V9.64872H19.2673L19.2674 9.65475C19.2674 9.65265 19.2674 9.65064 19.2676 9.64872C19.2683 9.63541 19.2714 9.62651 19.2731 9.62253C19.2736 9.62136 19.2741 9.62049 19.2744 9.61987C19.2747 9.61974 19.275 9.61959 19.2754 9.61942C19.2785 9.61802 19.2877 9.6147 19.3023 9.6147C19.3169 9.6147 19.3261 9.61802 19.3292 9.61944C19.3296 9.61961 19.33 9.61977 19.3302 9.61991C19.3306 9.62051 19.331 9.62135 19.3315 9.62249C19.3332 9.62644 19.3363 9.63535 19.337 9.64872C19.3371 9.65073 19.3372 9.65284 19.3372 9.65505C19.3372 9.65527 19.3372 9.6555 19.3372 9.65573L19.3372 9.65573V9.65504V9.64872V9.42613H19.3373L19.3372 9.41931M19.295 8.95933L19.3022 9.41859L19.3022 9.41875L19.3023 9.42613L19.3029 9.45927C19.3173 9.45904 19.3262 9.45567 19.3293 9.45425C19.3297 9.45406 19.33 9.45389 19.3303 9.45374C19.3307 9.45312 19.3311 9.45223 19.3317 9.451C19.3333 9.44717 19.3362 9.43873 19.337 9.42613C19.3371 9.42398 19.3372 9.4217 19.3372 9.41931M19.3372 9.41931C19.3372 9.41888 19.3371 9.41845 19.3371 9.41802L19.3372 9.41931ZM2.04203 13.317C1.81347 13.3419 1.62285 13.5566 1.62772 13.7837V16.081C1.62772 16.3215 1.84931 16.5404 2.0928 16.5404H12.3254L2.04203 13.317ZM2.04203 13.317C2.30435 13.2885 2.56359 13.5231 2.55792 13.7837M2.04203 13.317L2.55792 13.7837M2.55792 13.7837V15.1215V15.6215H3.05792L2.55792 13.7837ZM19.2674 2.60845L18.998 2.76297C19.1169 2.6247 19.2092 2.46268 19.2674 2.28392V2.60845ZM12.3326 16.1215C12.3321 16.1215 12.3316 16.1215 12.3311 16.1215L12.3326 16.1215ZM6.31401 9.64856C6.31401 9.55523 6.40224 9.45933 6.51173 9.45933C6.62114 9.45933 6.70944 9.55532 6.70944 9.64856C6.70944 9.74181 6.62114 9.83779 6.51173 9.83779C6.40232 9.83779 6.31401 9.74181 6.31401 9.64856Z" fill="white" stroke="white"/>
</svg>
