<svg width="194" height="69" viewBox="0 0 194 69" fill="none" xmlns="http://www.w3.org/2000/svg">
<path d="M20.4907 34.9332C19.6121 35.5628 19.0707 36.4301 19.0707 37.3907C19.0707 38.3512 19.6121 39.2205 20.4907 39.8482C21.3693 40.4778 22.5795 40.8659 23.9199 40.8659C25.2602 40.8659 26.4732 40.4778 27.349 39.8482C28.2276 39.2185 28.7691 38.3512 28.7691 37.3907C28.7691 36.4301 28.2276 35.5608 27.349 34.9332C26.4704 34.3035 25.2602 33.9155 23.9199 33.9155C22.5795 33.9155 21.3665 34.3035 20.4907 34.9332Z" fill="#0A0661"/>
<path d="M4.25722 36.3008C3.86546 36.5815 3.62484 36.9665 3.62484 37.3937C3.62484 37.8198 3.86549 38.2058 4.25722 38.4866C4.64895 38.7673 5.18623 38.9398 5.78222 38.9398C6.37684 38.9398 6.91549 38.7673 7.30721 38.4866C7.69894 38.2058 7.93959 37.8208 7.93959 37.3937C7.93959 36.9675 7.69895 36.5815 7.30721 36.3008C6.91548 36.02 6.3782 35.8476 5.78222 35.8476C5.18759 35.8476 4.64894 36.02 4.25722 36.3008Z" fill="#0A0661"/>
<path d="M175.662 37.3937C175.662 36.4331 175.121 35.5638 174.242 34.9362C173.363 34.3065 172.153 33.9185 170.813 33.9185C169.472 33.9185 168.259 34.3065 167.384 34.9362C166.505 35.5658 165.964 36.4331 165.964 37.3937C165.964 38.3542 166.505 39.2235 167.384 39.8512C168.262 40.4808 169.472 40.8689 170.813 40.8689C172.153 40.8689 173.366 40.4808 174.242 39.8512C175.121 39.2215 175.662 38.3542 175.662 37.3937Z" fill="#0A0661"/>
<path fill-rule="evenodd" clip-rule="evenodd" d="M111.776 30.5685C111.255 30.9439 111.254 31.5483 111.774 31.9224C111.775 31.9233 111.775 31.925 111.774 31.926C111.773 31.927 111.773 31.9287 111.774 31.9296L115.406 34.5323C117.494 36.029 117.494 39.1347 115.406 40.6314L82.6168 64.1298C80.8756 65.3777 78.5329 65.3777 76.7917 64.1298L45.4183 41.646C42.635 39.6514 42.635 35.5124 45.4183 33.5177L76.7917 11.0339C78.5329 9.78607 80.8756 9.78607 82.6168 11.0339L103.188 25.7761C103.712 26.1501 104.557 26.1501 105.079 25.7761C105.601 25.4001 105.601 24.7945 105.079 24.4205L80.6499 6.91316C80.1252 6.53918 79.2802 6.53918 78.7583 6.91316L38.6209 35.6777C37.7717 36.2863 36.7531 36.6136 35.7084 36.6136H35.1563C32.9491 36.6136 31.0294 34.8643 29.2353 33.5786C27.8714 32.6031 25.9922 31.9995 23.9133 31.9995C21.8344 31.9995 19.9513 32.604 18.5914 33.5786C17.2301 34.5561 16.3878 35.9027 16.3878 37.3926C16.3878 38.8825 17.2314 40.2321 18.5914 41.2067C19.9553 42.1822 21.8344 42.7858 23.9133 42.7858C25.9922 42.7858 27.8754 42.1812 29.2353 41.2067C30.8855 40.0207 32.6621 38.5305 34.6942 38.5305H35.6915C36.7363 38.5305 37.7325 38.8417 38.5817 39.4504C45.5247 44.4264 78.294 67.912 78.763 68.2464C79.2877 68.6204 80.1327 68.6204 80.6546 68.2464L122.503 38.2559C123.024 37.8799 123.024 37.2743 122.503 36.9003L113.667 30.5685C113.143 30.1945 112.298 30.1945 111.776 30.5685ZM174.242 34.9362C175.121 35.5638 175.662 36.4331 175.662 37.3937C175.662 38.3542 175.121 39.2215 174.242 39.8512C173.366 40.4808 172.153 40.8689 170.813 40.8689C169.472 40.8689 168.262 40.4808 167.384 39.8512C166.505 39.2235 165.964 38.3542 165.964 37.3937C165.964 36.4331 166.505 35.5658 167.384 34.9362C168.259 34.3065 169.472 33.9185 170.813 33.9185C172.153 33.9185 173.363 34.3065 174.242 34.9362ZM178.337 37.3937C178.337 35.9044 177.494 34.5553 176.135 33.5808C176.134 33.5801 176.133 33.5792 176.132 33.5783C176.131 33.5773 176.13 33.5765 176.129 33.5757C174.765 32.6008 172.887 31.9977 170.809 31.9977C168.73 31.9977 166.847 32.6023 165.487 33.5769C165.471 33.588 165.455 33.5993 165.44 33.6105C163.683 34.8904 161.797 36.6118 159.623 36.6118C158.669 36.6118 157.738 36.3129 156.963 35.7571L127.588 14.7057C127.064 14.3317 126.219 14.3317 125.697 14.7057L94.7519 36.8824C94.2301 37.2584 94.2301 37.864 94.7519 38.238L101.21 42.8662C101.735 43.2401 102.58 43.2401 103.102 42.8662C103.623 42.4902 103.623 41.8846 103.102 41.5106C100.396 39.5717 100.396 35.5484 103.102 33.6095L123.73 18.8262C125.471 17.5783 127.814 17.5783 129.555 18.8262L155.543 37.4504C155.581 37.4778 155.602 37.524 155.602 37.571C155.602 37.5806 155.603 37.5896 155.603 37.5986C155.605 37.6159 155.596 37.6322 155.582 37.6423L129.558 56.2928C127.817 57.5406 125.474 57.5406 123.733 56.2927L115.63 50.4861C115.106 50.1121 114.26 50.1121 113.739 50.4861C113.217 50.8621 113.217 51.4677 113.739 51.8417L125.7 60.4135C126.224 60.7875 127.069 60.7875 127.591 60.4135L156.82 39.4666C157.668 38.8585 158.686 38.5315 159.73 38.5315H160.03C162.061 38.5315 163.838 40.0243 165.49 41.2077C166.853 42.1832 168.732 42.7868 170.812 42.7868C172.89 42.7868 174.774 42.1823 176.133 41.2077C177.495 40.2302 178.337 38.8836 178.337 37.3937ZM2.36564 34.9472C1.49261 35.5728 0.951172 36.4381 0.951172 37.3937C0.951172 38.3472 1.49265 39.2145 2.36564 39.8401C3.23863 40.4658 4.44604 40.8538 5.77939 40.8538C7.1099 40.8538 8.3201 40.4658 9.19313 39.8401C10.0662 39.2145 10.6076 38.3492 10.6076 37.3937C10.6076 36.4402 10.0661 35.5729 9.19313 34.9472C8.32014 34.3215 7.11273 33.9335 5.77939 33.9335C4.44887 33.9335 3.23867 34.3216 2.36564 34.9472ZM3.62484 37.3937C3.62484 36.9665 3.86546 36.5815 4.25722 36.3008C4.64894 36.02 5.18759 35.8476 5.78222 35.8476C6.3782 35.8476 6.91548 36.02 7.30721 36.3008C7.69895 36.5815 7.93959 36.9675 7.93959 37.3937C7.93959 37.8208 7.69894 38.2058 7.30721 38.4866C6.91549 38.7673 6.37684 38.9398 5.78222 38.9398C5.18623 38.9398 4.64895 38.7673 4.25722 38.4866C3.86549 38.2058 3.62484 37.8198 3.62484 37.3937ZM19.0707 37.3907C19.0707 36.4301 19.6121 35.5628 20.4907 34.9332C21.3665 34.3035 22.5795 33.9155 23.9199 33.9155C25.2602 33.9155 26.4704 34.3035 27.349 34.9332C28.2276 35.5608 28.7691 36.4301 28.7691 37.3907C28.7691 38.3512 28.2276 39.2185 27.349 39.8482C26.4732 40.4778 25.2602 40.8659 23.9199 40.8659C22.5795 40.8659 21.3693 40.4778 20.4907 39.8482C19.6121 39.2205 19.0707 38.3512 19.0707 37.3907ZM158.535 43.1841C158.011 42.8102 157.166 42.8102 156.644 43.1841L129.557 62.5956C127.816 63.8435 125.473 63.8435 123.732 62.5956L115.63 56.789C115.105 56.415 114.26 56.415 113.738 56.789C113.216 57.1649 113.216 57.7706 113.738 58.1445L125.699 66.7164C126.224 67.0904 127.069 67.0904 127.59 66.7164L158.535 44.5397C159.057 44.1637 159.057 43.5581 158.535 43.1841ZM39.2044 30.3622C39.7291 30.7362 40.5741 30.7362 41.096 30.3622L76.8007 4.77447C78.542 3.52663 80.8846 3.52663 82.6258 4.77448L104.554 20.4893C105.079 20.8632 105.924 20.8632 106.445 20.4893C106.967 20.1133 106.967 19.5077 106.445 19.1337L80.6589 0.653725C80.1343 0.279739 79.2892 0.279739 78.7674 0.653725L39.2044 29.0066C38.6826 29.3826 38.6826 29.9882 39.2044 30.3622Z" fill="#0A0661"/>
<path d="M191.102 37.3937C191.102 36.9675 190.862 36.5815 190.47 36.3008C190.078 36.02 189.541 35.8476 188.945 35.8476C188.35 35.8476 187.812 36.02 187.42 36.3008C187.028 36.5815 186.788 36.9665 186.788 37.3937C186.788 37.8198 187.028 38.2058 187.42 38.4866C187.812 38.7673 188.349 38.9398 188.945 38.9398C189.54 38.9398 190.078 38.7673 190.47 38.4866C190.862 38.2058 191.102 37.8208 191.102 37.3937Z" fill="#0A0661"/>
<path fill-rule="evenodd" clip-rule="evenodd" d="M192.363 34.9472C193.236 35.5729 193.777 36.4402 193.777 37.3937C193.777 38.3492 193.236 39.2145 192.363 39.8401C191.49 40.4658 190.28 40.8538 188.949 40.8538C187.616 40.8538 186.408 40.4658 185.535 39.8401C184.662 39.2145 184.121 38.3472 184.121 37.3937C184.121 36.4381 184.662 35.5728 185.535 34.9472C186.408 34.3216 187.619 33.9335 188.949 33.9335C190.283 33.9335 191.49 34.3215 192.363 34.9472ZM190.47 36.3008C190.862 36.5815 191.102 36.9675 191.102 37.3937C191.102 37.8208 190.862 38.2058 190.47 38.4866C190.078 38.7673 189.54 38.9398 188.945 38.9398C188.349 38.9398 187.812 38.7673 187.42 38.4866C187.028 38.2058 186.788 37.8198 186.788 37.3937C186.788 36.9665 187.028 36.5815 187.42 36.3008C187.812 36.02 188.35 35.8476 188.945 35.8476C189.541 35.8476 190.078 36.02 190.47 36.3008Z" fill="#0A0661"/>
</svg>
