<svg width="11" height="15" viewBox="0 0 11 15" fill="none" xmlns="http://www.w3.org/2000/svg">
<path d="M11 15H9.625V13.5714C9.625 13.0031 9.4077 12.4581 9.02091 12.0562C8.63411 11.6543 8.10951 11.4286 7.5625 11.4286H3.4375C2.89049 11.4286 2.36589 11.6543 1.97909 12.0562C1.5923 12.4581 1.375 13.0031 1.375 13.5714V15H0V13.5714C0 12.6242 0.362164 11.7158 1.00682 11.046C1.65148 10.3763 2.52582 10 3.4375 10H7.5625C8.47418 10 9.34852 10.3763 9.99318 11.046C10.6378 11.7158 11 12.6242 11 13.5714V15ZM5.5 8.57143C4.9583 8.57143 4.4219 8.46058 3.92143 8.2452C3.42096 8.02982 2.96623 7.71414 2.58318 7.31617C2.20014 6.91821 1.8963 6.44575 1.689 5.92579C1.4817 5.40582 1.375 4.84852 1.375 4.28571C1.375 3.72291 1.4817 3.16561 1.689 2.64564C1.8963 2.12568 2.20014 1.65322 2.58318 1.25526C2.96623 0.857291 3.42096 0.541608 3.92143 0.326231C4.4219 0.110853 4.9583 -8.38649e-09 5.5 0C6.59402 1.69373e-08 7.64323 0.451529 8.41682 1.25526C9.1904 2.05898 9.625 3.14907 9.625 4.28571C9.625 5.42236 9.1904 6.51244 8.41682 7.31617C7.64323 8.1199 6.59402 8.57143 5.5 8.57143V8.57143ZM5.5 7.14286C6.22935 7.14286 6.92882 6.84184 7.44454 6.30602C7.96027 5.7702 8.25 5.04348 8.25 4.28571C8.25 3.52795 7.96027 2.80123 7.44454 2.26541C6.92882 1.72959 6.22935 1.42857 5.5 1.42857C4.77065 1.42857 4.07118 1.72959 3.55546 2.26541C3.03973 2.80123 2.75 3.52795 2.75 4.28571C2.75 5.04348 3.03973 5.7702 3.55546 6.30602C4.07118 6.84184 4.77065 7.14286 5.5 7.14286V7.14286Z" fill="white"/>
</svg>
