<svg width="20" height="19" viewBox="0 0 20 19" fill="none" xmlns="http://www.w3.org/2000/svg">
<path d="M17 11V14H20V16H17V19H15V16H12V14H15V11H17ZM18.243 1.75698C20.403 3.92298 20.572 7.31398 18.75 9.66698C17.926 9.23998 16.99 8.99998 16 8.99998C12.686 8.99998 10 11.686 10 15C10 16.009 10.249 16.96 10.689 17.794L9.99901 18.485L1.52101 9.99298C-0.582994 7.63698 -0.503994 4.01898 1.75701 1.75698C4.02201 -0.50702 7.64501 -0.58302 10.001 1.52898C12.35 -0.58002 15.98 -0.51002 18.243 1.75698Z" fill="white"/>
</svg>
